<?xml version="1.0" standalone="no"?>
<!DOCTYPE svg PUBLIC "-//W3C//DTD SVG 20010904//EN"
 "http://www.w3.org/TR/2001/REC-SVG-20010904/DTD/svg10.dtd">
<svg version="1.0" xmlns="http://www.w3.org/2000/svg"
 width="128.000000pt" height="128.000000pt" viewBox="0 0 128.000000 128.000000"
 preserveAspectRatio="xMidYMid meet">
<metadata>
Created by potrace 1.12, written by Peter Selinger 2001-2015
</metadata>
<g transform="translate(0.000000,128.000000) scale(0.100000,-0.100000)"
fill="#000000" stroke="none">
<path d="M554 1271 c-142 -23 -253 -80 -359 -186 -89 -88 -130 -158 -166 -275
-26 -87 -31 -222 -10 -310 18 -77 82 -206 131 -264 129 -155 334 -245 525
-233 326 22 580 276 602 602 12 191 -78 396 -233 525 -55 46 -186 112 -254
128 -67 16 -178 22 -236 13z m396 -208 c0 -10 -119 -191 -263 -403 l-263 -385
263 -3 263 -2 0 -30 0 -30 -305 0 -305 0 0 23 c1 12 116 191 260 402 l259 380
-237 5 -237 5 -3 28 -3 27 285 0 c266 0 286 -1 286 -17z"/>
</g>
</svg>
